<?xml version="1.0" encoding="iso-8859-1"?>
<!-- Generator: Adobe Illustrator 19.0.0, SVG Export Plug-In . SVG Version: 6.00 Build 0)  -->
<svg xmlns="http://www.w3.org/2000/svg" xmlns:xlink="http://www.w3.org/1999/xlink" version="1.1" id="Capa_1" x="0px" y="0px" viewBox="0 0 487.643 487.643" style="enable-background:new 0 0 487.643 487.643;" xml:space="preserve" width="512px" height="512px">
<g>
	<path d="M113.869,209.443l46-200.1c0,0,71.2-9.3,142.6-7.8c28.5-2.3,58.9-2.5,83,2.7c81.9,17.4,61.4,74.5,61.4,74.5   c44.2,33.2,19,74.6,19,74.6c39.2,41,0.7,75.3,0.7,75.3s21.2,33-6.1,58c-34.2,31.2-126.9,10.5-126.9,10.5l0,0   c-6.4-1.1-13.3-2.5-20.7-4.2c0,0-32.1-15,0,82.4s-21.4,112.3-43.9,112.3s-15-48.1-15-48.1s-48.1-132.7-94.1-168   c-9.9-10.4-16.1-21.8-19.9-31.2l0,0l0,0c-0.9-2.3-1.7-4.5-2.4-6.5C134.469,227.543,127.869,217.843,113.869,209.443z    M70.869,206.643c9.7,0,19.2-7.7,21.2-17.2l34.8-165.6c2-9.5-4.3-17.2-14-17.2H4.169l0.1,200H70.869z" fill="#FFFFFF"/>
</g>
<g>
</g>
<g>
</g>
<g>
</g>
<g>
</g>
<g>
</g>
<g>
</g>
<g>
</g>
<g>
</g>
<g>
</g>
<g>
</g>
<g>
</g>
<g>
</g>
<g>
</g>
<g>
</g>
<g>
</g>
</svg>
